<?xml version="1.0" standalone="no"?>
<!DOCTYPE svg PUBLIC "-//W3C//DTD SVG 20010904//EN"
 "http://www.w3.org/TR/2001/REC-SVG-20010904/DTD/svg10.dtd">
<svg version="1.0" xmlns="http://www.w3.org/2000/svg"
 width="1000.000000pt" height="1000.000000pt" viewBox="0 0 1000.000000 1000.000000"
 preserveAspectRatio="xMidYMid meet">
<metadata>
Created by potrace 1.14, written by Peter Selinger 2001-2017
</metadata>
<g transform="translate(0.000000,1000.000000) scale(0.100000,-0.100000)"
fill="#000000" stroke="none">
<path d="M4191 7202 c-22 -62 -57 -100 -111 -119 l-49 -17 59 -28 c53 -26 62
-35 88 -88 l28 -59 14 37 c22 62 40 81 104 112 33 16 53 30 43 30 -25 0 -88
34 -110 58 -10 11 -26 40 -36 66 l-17 46 -13 -38z"/>
<path d="M4758 7008 c-2 -12 -17 -32 -35 -43 -39 -24 -40 -31 -8 -39 14 -4 31
-18 37 -31 14 -30 25 -32 33 -5 4 11 20 27 37 36 l31 16 -24 12 c-13 6 -33 26
-45 44 -21 31 -23 32 -26 10z"/>
<path d="M4847 6587 c-8 -54 -41 -134 -70 -166 -27 -29 -107 -66 -164 -76 -41
-6 -65 -21 -40 -23 35 -2 129 -31 158 -48 50 -29 94 -101 109 -178 7 -36 16
-66 19 -66 4 0 8 6 8 13 2 47 30 132 57 175 26 40 120 89 188 98 59 8 52 18
-21 33 -74 16 -141 54 -169 97 -13 20 -31 67 -41 105 -10 38 -20 71 -23 74 -3
3 -8 -14 -11 -38z"/>
<path d="M3089 6506 c-2 -2 -38 -6 -79 -9 -173 -13 -516 -81 -632 -126 -16 -6
-28 -9 -28 -7 0 8 -221 -74 -329 -120 -596 -259 -1065 -634 -1367 -1094 -115
-175 -225 -421 -260 -584 -31 -142 -38 -196 -38 -326 -1 -163 5 -220 36 -335
143 -534 596 -892 1293 -1020 31 -6 61 -10 200 -24 91 -9 377 -11 445 -2 l45
6 -80 19 c-343 80 -696 238 -930 415 -318 240 -496 587 -497 971 -2 425 205
863 587 1245 157 156 254 235 440 359 177 118 304 187 504 275 200 89 499 179
691 210 36 6 76 13 90 15 252 43 598 41 840 -4 30 -6 66 -12 80 -15 77 -15 78
-13 5 15 -72 27 -199 66 -243 75 -124 25 -238 45 -282 50 -60 7 -486 16 -491
11z"/>
<path d="M3677 6264 c-1 -1 -51 -4 -112 -8 -110 -6 -270 -27 -355 -46 -254
-58 -495 -141 -655 -225 -99 -53 -125 -65 -130 -65 -10 0 -229 -142 -304 -197
-171 -125 -347 -298 -466 -457 -48 -64 -155 -231 -155 -242 0 -2 31 31 69 73
252 286 616 546 961 687 36 15 74 31 85 36 124 58 391 135 600 174 157 29 262
38 439 39 195 0 266 -7 491 -48 54 -10 219 -62 285 -90 307 -128 540 -332 662
-577 16 -33 32 -58 34 -55 8 7 -26 156 -51 230 -150 430 -612 721 -1210 762
-95 7 -186 11 -188 9z"/>
<path d="M3752 4621 c-148 -46 -230 -182 -192 -317 21 -73 80 -128 211 -193
126 -63 155 -91 144 -140 -10 -46 -47 -66 -119 -65 -59 1 -144 33 -186 69 -35
31 -36 30 -114 -102 l-24 -43 26 -19 c175 -123 440 -129 565 -12 68 62 96 188
63 276 -19 49 -95 123 -156 151 -197 92 -220 108 -220 148 0 13 9 34 19 47 29
36 134 34 212 -2 l56 -26 36 73 c21 41 37 79 37 84 0 11 -87 57 -121 64 -13 2
-31 7 -40 11 -35 14 -147 11 -197 -4z"/>
<path d="M9090 4621 c-105 -26 -181 -79 -253 -173 -54 -72 -79 -148 -83 -253
-6 -143 29 -243 117 -340 82 -89 181 -135 304 -139 257 -10 458 175 469 434
15 315 -257 546 -554 471z m233 -218 c27 -19 52 -49 72 -87 26 -52 30 -69 29
-142 0 -72 -4 -91 -30 -141 -38 -74 -90 -112 -166 -120 -151 -15 -258 93 -258
262 0 114 61 220 145 251 64 23 158 13 208 -23z"/>
<path d="M1949 4593 c-1 -36 -1 -845 0 -855 1 -5 46 -8 101 -8 l100 0 0 164 0
164 108 4 c80 3 118 9 153 25 107 48 161 131 162 248 1 94 -15 144 -62 194
-72 77 -106 85 -348 89 l-213 4 -1 -29z m358 -157 c35 -17 53 -54 53 -104 -1
-68 -46 -102 -146 -108 l-64 -4 0 121 0 122 64 -6 c36 -3 77 -12 93 -21z"/>
<path d="M2927 4608 c-3 -7 -84 -208 -180 -446 l-175 -433 109 3 110 3 25 65
c14 36 29 75 35 88 9 22 10 22 176 20 l168 -3 32 -85 31 -85 111 -3 111 -3
-19 48 c-11 26 -92 226 -180 443 l-159 395 -95 3 c-70 2 -96 -1 -100 -10z
m134 -353 c17 -39 59 -156 59 -163 0 -4 -43 -7 -95 -7 -52 0 -95 3 -95 7 0 4
21 62 47 129 l47 122 14 -34 c8 -19 19 -43 23 -54z"/>
<path d="M4182 4533 l3 -88 98 -1 c54 -1 100 -4 103 -7 3 -3 5 -163 5 -356 l0
-351 103 0 102 0 -1 355 0 355 42 1 c24 0 71 1 106 2 l62 2 2 88 2 87 -315 0
-315 0 3 -87z"/>
<path d="M4880 4176 l0 -446 103 0 102 0 -1 170 c-1 93 1 170 5 170 3 -1 29
-31 56 -68 28 -37 86 -113 130 -169 l80 -103 129 0 c122 0 128 1 114 18 -25
29 -263 316 -276 334 -11 14 -7 19 34 40 140 69 177 296 68 412 -67 71 -103
80 -336 84 l-208 4 0 -446z m345 260 c33 -22 47 -52 47 -98 -1 -71 -43 -108
-121 -110 -72 -1 -68 -9 -68 116 l0 115 59 -4 c32 -1 69 -10 83 -19z"/>
<path d="M5650 4175 l0 -445 103 0 102 0 0 445 0 445 -102 0 -103 0 0 -445z"/>
<path d="M6013 4603 c1 -20 -13 -194 -18 -233 -2 -14 -6 -59 -10 -100 -3 -41
-8 -91 -10 -110 -2 -19 -7 -71 -10 -115 -4 -44 -8 -96 -10 -115 -2 -19 -6 -72
-10 -117 l-7 -83 101 0 c74 0 101 3 102 13 0 6 2 28 4 47 4 37 10 117 21 265
3 49 8 96 9 105 2 8 4 35 4 59 1 24 3 42 6 40 2 -3 27 -72 55 -154 28 -83 55
-159 60 -170 4 -11 22 -61 39 -110 l32 -90 59 0 c33 1 61 3 63 5 2 3 8 21 14
40 15 47 148 428 161 460 l11 25 1 -30 c1 -16 3 -43 5 -60 2 -16 6 -70 9 -120
7 -94 15 -198 21 -250 2 -16 4 -40 4 -52 1 -22 4 -23 107 -23 58 0 103 3 100
8 -2 4 -7 41 -11 82 -3 41 -8 93 -10 115 -2 22 -7 72 -10 110 -9 103 -16 185
-20 230 -11 112 -28 306 -29 328 0 15 -12 17 -109 17 l-108 0 -15 -37 c-8 -21
-19 -47 -24 -58 -5 -11 -42 -107 -82 -212 -40 -106 -76 -193 -79 -193 -4 0
-14 21 -23 48 -8 26 -51 137 -93 247 l-78 200 -111 3 c-102 2 -111 1 -111 -15z"/>
<path d="M7300 4176 l0 -447 102 3 101 3 0 161 0 162 106 4 c126 5 191 29 247
90 49 55 67 101 70 181 5 126 -45 210 -155 261 -41 19 -68 21 -258 24 l-213 4
0 -446z m361 258 c50 -26 68 -100 38 -156 -16 -30 -69 -50 -133 -52 l-61 -1
-1 110 c-1 61 1 114 4 119 7 13 118 -1 153 -20z"/>
<path d="M8019 4608 c-4 -10 -3 -842 0 -870 1 -5 46 -8 101 -8 l100 0 0 170
c0 94 3 170 8 169 4 0 26 -26 48 -57 57 -78 192 -254 208 -270 9 -9 46 -12
139 -10 l127 3 -28 30 c-15 17 -59 68 -97 115 -38 47 -72 87 -75 90 -17 16
-100 119 -100 124 0 3 15 12 34 21 86 41 139 129 140 235 0 116 -41 187 -138
238 -49 26 -57 26 -257 30 -167 3 -207 1 -210 -10z m306 -158 c53 -12 85 -50
85 -101 0 -82 -40 -117 -138 -123 l-52 -3 0 118 0 119 33 0 c17 0 50 -5 72
-10z"/>
<path d="M2608 3250 c-47 -39 -61 -84 -61 -195 0 -134 28 -198 98 -222 38 -13
100 -7 130 13 24 15 50 62 57 99 2 16 -3 20 -26 20 -19 0 -30 -6 -31 -16 -8
-50 -37 -79 -80 -79 -28 0 -63 23 -75 49 -14 29 -22 178 -14 228 9 51 46 83
93 83 33 0 44 -5 58 -26 9 -14 17 -36 18 -47 2 -22 25 -33 50 -24 17 7 2 72
-25 104 -42 53 -136 59 -192 13z"/>
<path d="M3059 3270 c-4 -15 -5 -417 -1 -427 3 -10 36 -13 119 -13 113 0 114
0 111 23 -3 20 -9 22 -78 24 -41 1 -81 2 -88 3 -10 0 -13 24 -12 98 1 53 1
143 1 199 l-1 103 -25 -2 c-14 -1 -26 -5 -26 -8z"/>
<path d="M3499 3251 c0 -30 0 -402 0 -413 1 -5 55 -8 121 -8 l120 0 -2 25 c-2
23 -4 24 -86 24 -47 0 -87 3 -91 6 -8 9 -10 145 -2 146 3 1 37 2 75 3 61 2 70
5 77 24 5 12 5 23 1 23 -4 1 -38 3 -77 4 -38 1 -72 3 -75 4 -5 1 -6 108 -1
134 0 4 41 7 90 7 84 0 90 1 88 20 -1 11 -4 21 -7 21 -3 1 -56 3 -117 4 l-113
1 -1 -25z"/>
<path d="M4041 3211 c-11 -36 -43 -135 -71 -220 -27 -84 -50 -155 -50 -157 0
-2 13 -4 28 -4 26 0 30 5 45 59 l16 58 73 -2 c40 -1 76 -3 79 -4 3 0 12 -26
19 -56 12 -51 15 -55 42 -55 15 0 28 3 28 7 0 4 -32 105 -70 224 -66 201 -72
217 -94 217 -21 0 -27 -10 -45 -67z m83 -139 c10 -35 15 -67 11 -70 -10 -10
-105 -10 -105 0 0 5 12 49 27 99 30 101 31 101 67 -29z"/>
<path d="M4460 3276 c-1 -1 -1 -352 -1 -404 1 -41 2 -43 28 -40 l28 3 1 160
c1 88 2 162 3 165 1 4 23 -36 134 -252 35 -70 42 -78 68 -78 l29 0 0 224 0
224 -28 -1 -29 -2 1 -167 c1 -92 -2 -164 -6 -160 -4 4 -37 66 -74 137 -101
195 -97 189 -127 190 -15 1 -27 1 -27 1z"/>
<path d="M4997 3266 c-2 -6 -4 -107 -5 -223 l0 -213 29 0 29 0 0 224 0 224
-24 0 c-14 0 -27 -6 -29 -12z"/>
<path d="M5290 3053 l0 -223 31 0 30 0 -3 165 c-2 91 -1 165 2 165 3 0 43 -74
90 -165 79 -152 87 -165 113 -165 23 0 27 4 28 28 4 218 0 405 -9 414 -5 5
-18 7 -28 4 -18 -5 -19 -19 -19 -171 1 -91 -2 -162 -6 -157 -3 4 -43 79 -89
168 -78 151 -84 160 -111 160 l-29 0 0 -223z"/>
<path d="M5883 3260 c-55 -33 -67 -70 -68 -200 0 -132 17 -180 75 -214 66 -39
189 -16 206 39 4 11 7 52 8 92 l1 71 -50 4 c-74 5 -94 0 -92 -23 1 -19 7 -21
57 -23 23 -1 25 -5 26 -49 1 -60 -11 -76 -61 -83 -51 -7 -90 21 -105 74 -13
47 -13 176 0 223 22 80 134 83 160 4 9 -27 16 -34 33 -31 13 1 23 11 25 22 4
26 -37 85 -68 101 -38 19 -110 16 -147 -7z"/>
<path d="M6661 3254 c-37 -31 -53 -81 -40 -128 12 -43 29 -58 111 -96 69 -31
88 -51 88 -92 -1 -35 -23 -57 -61 -62 -47 -5 -77 11 -91 51 -10 26 -18 33 -39
33 -23 0 -26 -3 -21 -27 12 -67 65 -105 144 -105 80 0 128 49 123 125 -4 57
-30 86 -108 122 -80 37 -101 62 -92 106 16 74 143 62 145 -13 0 -13 8 -18 30
-18 28 0 30 2 24 28 -17 67 -64 102 -138 102 -33 0 -52 -6 -75 -26z"/>
<path d="M7101 3270 c-4 -3 -7 -102 -6 -220 l0 -215 121 -3 c121 -3 121 -2
120 20 -1 25 -4 25 -134 27 l-53 1 3 78 3 77 75 0 c73 0 75 1 75 25 0 24 -3
25 -65 26 -36 1 -71 2 -77 3 -9 1 -13 22 -13 70 l0 69 48 0 c133 1 129 1 134
26 l5 23 -114 -1 c-63 0 -117 -3 -122 -6z"/>
<path d="M7550 3054 l0 -224 29 0 28 0 -1 90 -1 90 41 0 41 0 39 -90 c35 -83
40 -90 66 -90 15 0 28 4 28 9 0 6 -18 49 -40 97 -40 86 -40 87 -20 101 65 46
63 175 -4 219 -19 12 -52 17 -116 19 l-90 3 0 -224z m172 162 c34 -15 38 -99
6 -133 -17 -18 -32 -23 -70 -23 -26 0 -48 3 -49 8 -1 10 -1 101 0 134 1 26 3
27 49 24 26 -2 54 -6 64 -10z"/>
<path d="M7995 3270 c3 -5 8 -18 10 -28 4 -21 102 -343 118 -385 8 -22 15 -27
35 -25 20 2 28 13 44 63 10 33 21 67 23 75 2 8 22 74 44 145 23 72 42 137 44
145 2 15 -33 23 -51 11 -5 -3 -28 -76 -51 -161 -51 -183 -57 -196 -67 -155 -4
17 -26 95 -48 175 l-42 145 -32 2 c-20 2 -31 -1 -27 -7z"/>
<path d="M8528 3266 c-2 -6 -4 -105 -3 -221 l0 -210 28 -3 c31 -4 28 -26 28
248 0 216 2 198 -25 198 -14 0 -26 -6 -28 -12z"/>
<path d="M8888 3263 c-14 -9 -37 -35 -50 -57 -20 -36 -23 -54 -23 -151 0 -121
16 -170 67 -208 59 -44 160 -22 196 42 32 56 29 81 -8 81 -25 0 -30 -4 -30
-25 0 -35 -42 -75 -78 -75 -63 0 -92 57 -91 178 0 111 14 152 57 174 57 28
105 -2 116 -72 2 -8 15 -16 31 -18 27 -4 28 -3 22 34 -7 45 -34 84 -68 101
-34 18 -109 15 -141 -4z"/>
<path d="M9328 3276 c0 -1 -2 -101 -3 -223 l-2 -223 117 0 c64 0 119 3 122 6
3 3 3 14 1 25 -5 17 -13 20 -52 19 -25 -1 -65 -1 -89 -1 l-43 1 3 78 3 77 65
1 c36 1 71 2 78 3 6 1 12 11 12 24 0 21 -4 22 -77 22 l-78 0 -3 73 c-3 71 -2
73 20 72 13 -1 53 -2 91 -1 63 1 67 2 67 24 0 23 -1 23 -115 23 -63 0 -116 0
-117 0z"/>
</g>
</svg>
