<?xml version="1.0" standalone="no"?>
<!DOCTYPE svg PUBLIC "-//W3C//DTD SVG 20010904//EN"
 "http://www.w3.org/TR/2001/REC-SVG-20010904/DTD/svg10.dtd">
<svg version="1.0" xmlns="http://www.w3.org/2000/svg"
 width="700.000000pt" height="700.000000pt" viewBox="0 0 700.000000 700.000000"
 preserveAspectRatio="xMidYMid meet">
<metadata>
Created by potrace 1.14, written by Peter Selinger 2001-2017
</metadata>
<g transform="translate(0.000000,700.000000) scale(0.100000,-0.100000)"
fill="#000000" stroke="none">
<path d="M1470 3453 l0 -3038 812 1 c447 1 816 2 821 3 4 0 7 453 7 1006 l0
1005 263 1 c354 1 466 5 636 25 100 12 131 17 251 40 579 113 1031 404 1305
839 137 218 248 529 281 785 2 19 6 49 8 65 20 136 28 446 15 582 -13 128 -20
186 -29 228 -5 22 -12 56 -15 75 -3 19 -15 69 -26 110 -172 626 -633 1046
-1334 1215 -124 30 -305 61 -405 70 -41 4 -88 9 -105 13 -16 3 -582 7 -1257 9
l-1228 4 0 -3038z m2255 1698 c185 -30 311 -104 397 -235 63 -97 89 -204 91
-365 1 -182 -37 -325 -119 -451 -94 -145 -221 -239 -389 -289 -108 -31 -124
-33 -367 -38 l-228 -5 0 694 c0 382 2 697 5 700 11 10 533 1 610 -11z"/>
</g>
</svg>
