<svg width="24" height="24" viewBox="0 0 24 24" fill="none" xmlns="http://www.w3.org/2000/svg">
<path d="M8.27013 3.71012L10.3401 2.87012C11.1501 2.54012 12.0801 2.93012 12.4101 3.75012L13.0401 5.29012C13.3701 6.10012 12.9801 7.03012 12.1601 7.37012L9.87013 8.30012C10.1101 9.45012 10.4801 10.8001 11.0601 12.2601C11.7101 13.9101 12.4601 15.2701 13.1401 16.3601L15.4301 15.4301C16.2501 15.1001 17.1801 15.4901 17.5101 16.3101L18.1401 17.8501C18.4701 18.6701 18.0801 19.6001 17.2601 19.9301L15.1901 20.7701L15.1501 20.7901C12.9201 21.6901 10.3501 20.8201 9.19013 18.7201C8.41013 17.3101 7.64013 15.7301 6.93013 13.9601C6.29013 12.3601 5.79013 10.8301 5.41013 9.41012C4.78013 7.08012 6.00013 4.65012 8.23013 3.74012L8.27013 3.71012Z" stroke="white" stroke-width="1.5" stroke-miterlimit="10" stroke-linecap="round" stroke-linejoin="round"/>
</svg>
