<svg width="168" height="81" viewBox="0 0 168 81" fill="none" xmlns="http://www.w3.org/2000/svg">
<path d="M160.912 -97.1806C157.357 -97.1806 154.459 -100.507 154.459 -104.59C154.459 -108.673 157.357 -112 160.912 -112C164.468 -112 167.366 -108.673 167.366 -104.59C167.366 -100.482 164.468 -97.1806 160.912 -97.1806ZM167.366 -60.2581C167.366 -64.341 164.468 -67.6678 160.912 -67.6678C157.357 -67.6678 154.459 -64.341 154.459 -60.2581C154.459 -56.1752 157.357 -52.8484 160.912 -52.8484C164.468 -52.8484 167.366 -56.15 167.366 -60.2581ZM167.366 -15.9259C167.366 -20.0088 164.468 -23.3356 160.912 -23.3356C157.357 -23.3356 154.459 -20.0088 154.459 -15.9259C154.459 -11.843 157.357 -8.51617 160.912 -8.51617C164.468 -8.49097 167.366 -11.8178 167.366 -15.9259ZM167.366 28.4315C167.366 24.3486 164.468 21.0218 160.912 21.0218C157.357 21.0218 154.459 24.3486 154.459 28.4315C154.459 32.5145 157.357 35.8413 160.912 35.8413C164.468 35.8413 167.366 32.5145 167.366 28.4315ZM167.366 72.7638C167.366 68.6809 164.468 65.354 160.912 65.354C157.357 65.354 154.459 68.6809 154.459 72.7638C154.459 76.8466 157.357 80.1735 160.912 80.1735C164.468 80.1735 167.366 76.8466 167.366 72.7638ZM128.756 -104.59C128.756 -108.673 125.859 -112 122.303 -112C118.747 -112 115.85 -108.673 115.85 -104.59C115.85 -100.507 118.747 -97.1806 122.303 -97.1806C125.859 -97.1806 128.756 -100.482 128.756 -104.59ZM128.756 -60.2581C128.756 -64.341 125.859 -67.6678 122.303 -67.6678C118.747 -67.6678 115.85 -64.341 115.85 -60.2581C115.85 -56.1752 118.747 -52.8484 122.303 -52.8484C125.859 -52.8484 128.756 -56.15 128.756 -60.2581ZM128.756 -15.9259C128.756 -20.0088 125.859 -23.3356 122.303 -23.3356C118.747 -23.3356 115.85 -20.0088 115.85 -15.9259C115.85 -11.843 118.747 -8.51617 122.303 -8.51617C125.859 -8.49097 128.756 -11.8178 128.756 -15.9259ZM128.756 28.4315C128.756 24.3486 125.859 21.0218 122.303 21.0218C118.747 21.0218 115.85 24.3486 115.85 28.4315C115.85 32.5145 118.747 35.8413 122.303 35.8413C125.859 35.8413 128.756 32.5145 128.756 28.4315ZM128.756 72.7638C128.756 68.6809 125.859 65.354 122.303 65.354C118.747 65.354 115.85 68.6809 115.85 72.7638C115.85 76.8466 118.747 80.1735 122.303 80.1735C125.859 80.1735 128.756 76.8466 128.756 72.7638ZM90.125 -104.59C90.125 -108.673 87.2276 -112 83.6718 -112C80.116 -112 77.2186 -108.673 77.2186 -104.59C77.2186 -100.507 80.116 -97.1806 83.6718 -97.1806C87.2496 -97.1806 90.125 -100.482 90.125 -104.59ZM90.125 -60.2581C90.125 -64.341 87.2276 -67.6678 83.6718 -67.6678C80.116 -67.6678 77.2186 -64.341 77.2186 -60.2581C77.2186 -56.1752 80.116 -52.8484 83.6718 -52.8484C87.2496 -52.8484 90.125 -56.15 90.125 -60.2581ZM90.125 -15.9259C90.125 -20.0088 87.2276 -23.3356 83.6718 -23.3356C80.116 -23.3356 77.2186 -20.0088 77.2186 -15.9259C77.2186 -11.843 80.116 -8.51617 83.6718 -8.51617C87.2496 -8.49097 90.125 -11.8178 90.125 -15.9259ZM90.125 28.4315C90.125 24.3486 87.2276 21.0218 83.6718 21.0218C80.116 21.0218 77.2186 24.3486 77.2186 28.4315C77.2186 32.5145 80.116 35.8413 83.6718 35.8413C87.2496 35.8413 90.125 32.5145 90.125 28.4315ZM90.125 72.7638C90.125 68.6809 87.2276 65.354 83.6718 65.354C80.116 65.354 77.2186 68.6809 77.2186 72.7638C77.2186 76.8466 80.116 80.1735 83.6718 80.1735C87.2496 80.1735 90.125 76.8466 90.125 72.7638ZM51.5156 -104.59C51.5156 -108.673 48.6183 -112 45.0624 -112C41.5066 -112 38.6094 -108.673 38.6094 -104.59C38.6094 -100.507 41.5066 -97.1806 45.0624 -97.1806C48.6402 -97.1806 51.5156 -100.482 51.5156 -104.59ZM51.5156 -60.2581C51.5156 -64.341 48.6183 -67.6678 45.0624 -67.6678C41.5066 -67.6678 38.6094 -64.341 38.6094 -60.2581C38.6094 -56.1752 41.5066 -52.8484 45.0624 -52.8484C48.6402 -52.8484 51.5156 -56.15 51.5156 -60.2581ZM51.5156 -15.9259C51.5156 -20.0088 48.6183 -23.3356 45.0624 -23.3356C41.5066 -23.3356 38.6094 -20.0088 38.6094 -15.9259C38.6094 -11.843 41.5066 -8.51617 45.0624 -8.51617C48.6402 -8.49097 51.5156 -11.8178 51.5156 -15.9259ZM51.5156 28.4315C51.5156 24.3486 48.6183 21.0218 45.0624 21.0218C41.5066 21.0218 38.6094 24.3486 38.6094 28.4315C38.6094 32.5145 41.5066 35.8413 45.0624 35.8413C48.6402 35.8413 51.5156 32.5145 51.5156 28.4315ZM51.5156 72.7638C51.5156 68.6809 48.6183 65.354 45.0624 65.354C41.5066 65.354 38.6094 68.6809 38.6094 72.7638C38.6094 76.8466 41.5066 80.1735 45.0624 80.1735C48.6402 80.1735 51.5156 76.8466 51.5156 72.7638ZM12.9064 -104.59C12.9064 -108.673 10.009 -112 6.45318 -112C2.89735 -112 0 -108.673 0 -104.59C0 -100.507 2.89735 -97.1806 6.45318 -97.1806C10.009 -97.1806 12.9064 -100.482 12.9064 -104.59ZM12.9064 -60.2581C12.9064 -64.341 10.009 -67.6678 6.45318 -67.6678C2.89735 -67.6678 0 -64.341 0 -60.2581C0 -56.1752 2.89735 -52.8484 6.45318 -52.8484C10.009 -52.8484 12.9064 -56.15 12.9064 -60.2581ZM12.9064 -15.9259C12.9064 -20.0088 10.009 -23.3356 6.45318 -23.3356C2.89735 -23.3356 0 -20.0088 0 -15.9259C0 -11.843 2.89735 -8.51617 6.45318 -8.51617C10.009 -8.51617 12.9064 -11.8178 12.9064 -15.9259ZM12.9064 28.4315C12.9064 24.3486 10.009 21.0218 6.45318 21.0218C2.89735 21.0218 0 24.3486 0 28.4315C0 32.5145 2.89735 35.8413 6.45318 35.8413C10.009 35.8413 12.9064 32.5145 12.9064 28.4315ZM12.9064 72.7638C12.9064 68.6809 10.009 65.354 6.45318 65.354C2.89735 65.354 0 68.6809 0 72.7638C0 76.8466 2.89735 80.1735 6.45318 80.1735C10.009 80.1735 12.9064 76.8466 12.9064 72.7638Z" fill="#1688CD"/>
</svg>
