<svg xmlns="http://www.w3.org/2000/svg" xmlns:xlink="http://www.w3.org/1999/xlink" width="500" zoomAndPan="magnify" viewBox="0 0 375 374.999991" height="500" preserveAspectRatio="xMidYMid meet" version="1.0"><defs><g/><clipPath id="id1"><path d="M 170 125 L 194.285156 125 L 194.285156 150 L 170 150 Z M 170 125 " clip-rule="nonzero"/></clipPath><clipPath id="id2"><path d="M 150 103.398438 L 165 103.398438 L 165 117 L 150 117 Z M 150 103.398438 " clip-rule="nonzero"/></clipPath></defs><path fill="#0071a8" d="M 91.460938 143.691406 C 114.839844 133.972656 138.796875 132.371094 157.9375 137.671875 C 136.171875 128.039062 105.914062 128.300781 76.511719 140.523438 C 29.890625 159.921875 3.121094 202.035156 16.714844 234.59375 C 26.734375 258.589844 55.902344 270.679688 89.222656 267.613281 C 48.535156 258.050781 39.378906 240.164062 35.71875 231.367188 C 23.042969 201.019531 48.003906 161.761719 91.460938 143.691406 Z M 91.460938 143.691406 " fill-opacity="1" fill-rule="nonzero"/><path fill="#62c7e3" d="M 189.6875 167.332031 C 187.125 161.195312 183 156.019531 177.722656 151.890625 C 160.34375 138.269531 130.355469 135.980469 101.382812 148.023438 C 80.105469 156.878906 63.921875 171.570312 55.832031 187.441406 C 65.484375 175.167969 79.675781 164.308594 97.042969 157.089844 C 133.417969 141.96875 171.304688 147.855469 187.328125 169.621094 C 189.191406 172.160156 190.785156 174.898438 192.015625 177.855469 C 192.164062 178.203125 192.277344 178.5625 192.410156 178.914062 C 192.128906 174.945312 191.246094 171.066406 189.6875 167.332031 Z M 189.6875 167.332031 " fill-opacity="1" fill-rule="nonzero"/><g clip-path="url(#id1)"><path fill="#14bbe2" d="M 194.164062 137.613281 C 185.214844 139.261719 183.878906 140.59375 182.230469 149.523438 C 180.582031 140.59375 179.246094 139.261719 170.296875 137.613281 C 179.246094 135.96875 180.582031 134.636719 182.230469 125.707031 C 183.878906 134.648438 185.214844 135.980469 194.164062 137.613281 Z M 194.164062 137.613281 " fill-opacity="1" fill-rule="nonzero"/></g><g clip-path="url(#id2)"><path fill="#62c7e3" d="M 164.410156 110.152344 C 159.960938 111.425781 158.917969 112.464844 157.644531 116.910156 C 156.367188 112.464844 155.328125 111.425781 150.875 110.152344 C 155.328125 108.878906 156.367188 107.839844 157.644531 103.398438 C 158.917969 107.839844 159.960938 108.878906 164.410156 110.152344 Z M 164.410156 110.152344 " fill-opacity="1" fill-rule="nonzero"/></g><path fill="#0071a8" d="M 182.230469 114.675781 C 180.003906 115.316406 179.484375 115.835938 178.839844 118.058594 C 178.195312 115.835938 177.675781 115.316406 175.449219 114.675781 C 177.675781 114.03125 178.195312 113.515625 178.839844 111.292969 C 179.484375 113.515625 180.003906 114.03125 182.230469 114.675781 Z M 182.230469 114.675781 " fill-opacity="1" fill-rule="nonzero"/><g fill="#0071a8" fill-opacity="1"><g transform="translate(70.608249, 235.213475)"><g><path d="M 2.421875 -33.390625 L 14.609375 -33.390625 C 18.003906 -33.390625 20.753906 -32.507812 22.859375 -30.75 C 24.960938 -29 26.015625 -26.453125 26.015625 -23.109375 C 26.015625 -19.765625 24.945312 -17.140625 22.8125 -15.234375 C 20.6875 -13.335938 17.953125 -12.390625 14.609375 -12.390625 L 10.03125 -12.390625 L 10.03125 0 L 2.421875 0 Z M 10.03125 -18.453125 L 12.1875 -18.453125 C 13.882812 -18.453125 15.28125 -18.796875 16.375 -19.484375 C 17.46875 -20.171875 18.015625 -21.296875 18.015625 -22.859375 C 18.015625 -24.453125 17.46875 -25.59375 16.375 -26.28125 C 15.28125 -26.96875 13.882812 -27.3125 12.1875 -27.3125 L 10.03125 -27.3125 Z M 10.03125 -18.453125 "/></g></g></g><g fill="#0071a8" fill-opacity="1"><g transform="translate(97.552457, 235.213475)"><g><path d="M 19.390625 -33.390625 L 32.859375 0 L 24.6875 0 L 22.21875 -6.671875 L 9.515625 -6.671875 L 7.046875 0 L -1.140625 0 L 12.34375 -33.390625 Z M 19.625 -13.359375 L 15.90625 -23.0625 L 15.828125 -23.0625 L 12.09375 -13.359375 Z M 19.625 -13.359375 "/></g></g></g><g fill="#0071a8" fill-opacity="1"><g transform="translate(129.270565, 235.213475)"><g><path d="M 14.734375 -34 C 16.535156 -34 18.300781 -33.734375 20.03125 -33.203125 C 21.757812 -32.679688 23.039062 -32.160156 23.875 -31.640625 L 25.09375 -30.84375 L 22.015625 -24.765625 C 21.773438 -24.929688 21.4375 -25.140625 21 -25.390625 C 20.570312 -25.648438 19.765625 -25.992188 18.578125 -26.421875 C 17.390625 -26.859375 16.28125 -27.078125 15.25 -27.078125 C 13.988281 -27.078125 13.015625 -26.804688 12.328125 -26.265625 C 11.640625 -25.722656 11.296875 -24.992188 11.296875 -24.078125 C 11.296875 -23.617188 11.457031 -23.191406 11.78125 -22.796875 C 12.101562 -22.410156 12.65625 -21.992188 13.4375 -21.546875 C 14.21875 -21.097656 14.90625 -20.738281 15.5 -20.46875 C 16.09375 -20.207031 17.007812 -19.804688 18.25 -19.265625 C 20.40625 -18.347656 22.242188 -17.097656 23.765625 -15.515625 C 25.296875 -13.941406 26.0625 -12.15625 26.0625 -10.15625 C 26.0625 -8.238281 25.71875 -6.566406 25.03125 -5.140625 C 24.34375 -3.710938 23.394531 -2.59375 22.1875 -1.78125 C 20.988281 -0.96875 19.660156 -0.367188 18.203125 0.015625 C 16.753906 0.410156 15.175781 0.609375 13.46875 0.609375 C 12.019531 0.609375 10.59375 0.457031 9.1875 0.15625 C 7.78125 -0.132812 6.601562 -0.503906 5.65625 -0.953125 C 4.71875 -1.398438 3.867188 -1.835938 3.109375 -2.265625 C 2.359375 -2.691406 1.804688 -3.054688 1.453125 -3.359375 L 0.9375 -3.796875 L 4.734375 -10.203125 C 5.054688 -9.929688 5.5 -9.582031 6.0625 -9.15625 C 6.632812 -8.738281 7.640625 -8.179688 9.078125 -7.484375 C 10.523438 -6.785156 11.800781 -6.4375 12.90625 -6.4375 C 16.113281 -6.4375 17.71875 -7.53125 17.71875 -9.71875 C 17.71875 -10.175781 17.601562 -10.597656 17.375 -10.984375 C 17.144531 -11.378906 16.738281 -11.769531 16.15625 -12.15625 C 15.582031 -12.550781 15.070312 -12.863281 14.625 -13.09375 C 14.1875 -13.320312 13.457031 -13.671875 12.4375 -14.140625 C 11.425781 -14.617188 10.679688 -14.976562 10.203125 -15.21875 C 8.171875 -16.21875 6.601562 -17.460938 5.5 -18.953125 C 4.394531 -20.453125 3.84375 -22.066406 3.84375 -23.796875 C 3.84375 -26.785156 4.945312 -29.234375 7.15625 -31.140625 C 9.375 -33.046875 11.898438 -34 14.734375 -34 Z M 14.734375 -34 "/></g></g></g><g fill="#0071a8" fill-opacity="1"><g transform="translate(156.45752, 235.213475)"><g><path d="M 0.328125 -26.703125 L 0.328125 -33.390625 L 23.796875 -33.390625 L 23.796875 -26.703125 L 15.859375 -26.703125 L 15.859375 0 L 8.25 0 L 8.25 -26.703125 Z M 0.328125 -26.703125 "/></g></g></g><g fill="#0071a8" fill-opacity="1"><g transform="translate(180.569749, 235.213475)"><g><path d="M 2.421875 -33.390625 L 14.359375 -33.390625 C 17.578125 -33.390625 20.195312 -32.53125 22.21875 -30.8125 C 24.238281 -29.101562 25.25 -26.65625 25.25 -23.46875 C 25.25 -21.019531 24.632812 -18.960938 23.40625 -17.296875 C 22.175781 -15.640625 20.507812 -14.472656 18.40625 -13.796875 L 29.90625 0 L 20.234375 0 L 10.03125 -13.1875 L 10.03125 0 L 2.421875 0 Z M 10.03125 -18.578125 L 10.921875 -18.578125 C 11.628906 -18.578125 12.222656 -18.585938 12.703125 -18.609375 C 13.191406 -18.640625 13.742188 -18.734375 14.359375 -18.890625 C 14.984375 -19.054688 15.484375 -19.285156 15.859375 -19.578125 C 16.242188 -19.878906 16.566406 -20.3125 16.828125 -20.875 C 17.097656 -21.445312 17.234375 -22.132812 17.234375 -22.9375 C 17.234375 -23.75 17.097656 -24.4375 16.828125 -25 C 16.566406 -25.570312 16.242188 -26.003906 15.859375 -26.296875 C 15.484375 -26.597656 14.984375 -26.828125 14.359375 -26.984375 C 13.742188 -27.148438 13.191406 -27.242188 12.703125 -27.265625 C 12.222656 -27.296875 11.628906 -27.3125 10.921875 -27.3125 L 10.03125 -27.3125 Z M 10.03125 -18.578125 "/></g></g></g><g fill="#0071a8" fill-opacity="1"><g transform="translate(209.536786, 235.213475)"><g><path d="M 10.03125 -33.390625 L 10.03125 0 L 2.421875 0 L 2.421875 -33.390625 Z M 10.03125 -33.390625 "/></g></g></g><g fill="#0071a8" fill-opacity="1"><g transform="translate(221.997476, 235.213475)"><g><path d="M 30.03125 0 L 28.453125 -19.796875 L 28.25 -19.796875 L 21.40625 -0.203125 L 16.875 -0.203125 L 10.03125 -19.796875 L 9.828125 -19.796875 L 8.25 0 L 0.640625 0 L 3.640625 -33.390625 L 11.734375 -33.390625 L 19.140625 -14.125 L 26.546875 -33.390625 L 34.640625 -33.390625 L 37.640625 0 Z M 30.03125 0 "/></g></g></g><g fill="#0071a8" fill-opacity="1"><g transform="translate(260.269566, 235.213475)"><g/></g></g><g fill="#0071a8" fill-opacity="1"><g transform="translate(271.314265, 235.213475)"><g><path d="M 2.421875 -33.390625 L 14.609375 -33.390625 C 18.003906 -33.390625 20.753906 -32.507812 22.859375 -30.75 C 24.960938 -29 26.015625 -26.453125 26.015625 -23.109375 C 26.015625 -19.765625 24.945312 -17.140625 22.8125 -15.234375 C 20.6875 -13.335938 17.953125 -12.390625 14.609375 -12.390625 L 10.03125 -12.390625 L 10.03125 0 L 2.421875 0 Z M 10.03125 -18.453125 L 12.1875 -18.453125 C 13.882812 -18.453125 15.28125 -18.796875 16.375 -19.484375 C 17.46875 -20.171875 18.015625 -21.296875 18.015625 -22.859375 C 18.015625 -24.453125 17.46875 -25.59375 16.375 -26.28125 C 15.28125 -26.96875 13.882812 -27.3125 12.1875 -27.3125 L 10.03125 -27.3125 Z M 10.03125 -18.453125 "/></g></g></g><g fill="#0071a8" fill-opacity="1"><g transform="translate(298.258474, 235.213475)"><g><path d="M 2.421875 -33.390625 L 14.359375 -33.390625 C 17.578125 -33.390625 20.195312 -32.53125 22.21875 -30.8125 C 24.238281 -29.101562 25.25 -26.65625 25.25 -23.46875 C 25.25 -21.019531 24.632812 -18.960938 23.40625 -17.296875 C 22.175781 -15.640625 20.507812 -14.472656 18.40625 -13.796875 L 29.90625 0 L 20.234375 0 L 10.03125 -13.1875 L 10.03125 0 L 2.421875 0 Z M 10.03125 -18.578125 L 10.921875 -18.578125 C 11.628906 -18.578125 12.222656 -18.585938 12.703125 -18.609375 C 13.191406 -18.640625 13.742188 -18.734375 14.359375 -18.890625 C 14.984375 -19.054688 15.484375 -19.285156 15.859375 -19.578125 C 16.242188 -19.878906 16.566406 -20.3125 16.828125 -20.875 C 17.097656 -21.445312 17.234375 -22.132812 17.234375 -22.9375 C 17.234375 -23.75 17.097656 -24.4375 16.828125 -25 C 16.566406 -25.570312 16.242188 -26.003906 15.859375 -26.296875 C 15.484375 -26.597656 14.984375 -26.828125 14.359375 -26.984375 C 13.742188 -27.148438 13.191406 -27.242188 12.703125 -27.265625 C 12.222656 -27.296875 11.628906 -27.3125 10.921875 -27.3125 L 10.03125 -27.3125 Z M 10.03125 -18.578125 "/></g></g></g><g fill="#0071a8" fill-opacity="1"><g transform="translate(327.225511, 235.213475)"><g><path d="M 0.9375 -16.71875 C 0.9375 -21.539062 2.582031 -25.625 5.875 -28.96875 C 9.164062 -32.320312 13.128906 -34 17.765625 -34 C 22.429688 -34 26.394531 -32.332031 29.65625 -29 C 32.925781 -25.664062 34.5625 -21.570312 34.5625 -16.71875 C 34.5625 -11.832031 32.953125 -7.722656 29.734375 -4.390625 C 26.523438 -1.054688 22.535156 0.609375 17.765625 0.609375 C 12.878906 0.609375 8.851562 -1.039062 5.6875 -4.34375 C 2.519531 -7.65625 0.9375 -11.78125 0.9375 -16.71875 Z M 9.140625 -16.71875 C 9.140625 -14.957031 9.410156 -13.351562 9.953125 -11.90625 C 10.492188 -10.46875 11.4375 -9.25 12.78125 -8.25 C 14.132812 -7.257812 15.796875 -6.765625 17.765625 -6.765625 C 20.597656 -6.765625 22.734375 -7.734375 24.171875 -9.671875 C 25.617188 -11.609375 26.34375 -13.957031 26.34375 -16.71875 C 26.34375 -19.4375 25.609375 -21.773438 24.140625 -23.734375 C 22.671875 -25.691406 20.546875 -26.671875 17.765625 -26.671875 C 15.015625 -26.671875 12.890625 -25.691406 11.390625 -23.734375 C 9.890625 -21.773438 9.140625 -19.4375 9.140625 -16.71875 Z M 9.140625 -16.71875 "/></g></g></g><g fill="#14bbe2" fill-opacity="1"><g transform="translate(94.063148, 268.724382)"><g><path d="M 12.296875 -5.3125 C 12.210938 -3.519531 11.710938 -2.144531 10.796875 -1.1875 C 9.878906 -0.238281 8.582031 0.234375 6.90625 0.234375 C 5.226562 0.234375 3.894531 -0.398438 2.90625 -1.671875 C 1.914062 -2.953125 1.421875 -4.6875 1.421875 -6.875 L 1.421875 -9.90625 C 1.421875 -12.082031 1.925781 -13.800781 2.9375 -15.0625 C 3.957031 -16.332031 5.347656 -16.96875 7.109375 -16.96875 C 8.722656 -16.96875 9.972656 -16.484375 10.859375 -15.515625 C 11.742188 -14.546875 12.222656 -13.160156 12.296875 -11.359375 L 10.171875 -11.359375 C 10.078125 -12.722656 9.789062 -13.695312 9.3125 -14.28125 C 8.832031 -14.863281 8.097656 -15.15625 7.109375 -15.15625 C 5.960938 -15.15625 5.082031 -14.707031 4.46875 -13.8125 C 3.851562 -12.914062 3.546875 -11.609375 3.546875 -9.890625 L 3.546875 -6.8125 C 3.546875 -5.125 3.832031 -3.828125 4.40625 -2.921875 C 4.976562 -2.015625 5.8125 -1.5625 6.90625 -1.5625 C 8 -1.5625 8.785156 -1.832031 9.265625 -2.375 C 9.753906 -2.925781 10.054688 -3.90625 10.171875 -5.3125 Z M 12.296875 -5.3125 "/></g></g></g><g fill="#14bbe2" fill-opacity="1"><g transform="translate(112.795558, 268.724382)"><g><path d="M 3.921875 -1.8125 L 10.484375 -1.8125 L 10.484375 0 L 1.8125 0 L 1.8125 -16.734375 L 3.921875 -16.734375 Z M 3.921875 -1.8125 "/></g></g></g><g fill="#14bbe2" fill-opacity="1"><g transform="translate(129.367874, 268.724382)"><g><path d="M 9.828125 -7.734375 L 3.90625 -7.734375 L 3.90625 -1.8125 L 10.8125 -1.8125 L 10.8125 0 L 1.8125 0 L 1.8125 -16.734375 L 10.6875 -16.734375 L 10.6875 -14.921875 L 3.90625 -14.921875 L 3.90625 -9.546875 L 9.828125 -9.546875 Z M 9.828125 -7.734375 "/></g></g></g><g fill="#14bbe2" fill-opacity="1"><g transform="translate(146.445745, 268.724382)"><g><path d="M 9.609375 -4.375 L 3.953125 -4.375 L 2.65625 0 L 0.5 0 L 5.890625 -16.734375 L 7.6875 -16.734375 L 13.09375 0 L 10.9375 0 Z M 4.5 -6.1875 L 9.078125 -6.1875 L 6.78125 -13.796875 Z M 4.5 -6.1875 "/></g></g></g><g fill="#14bbe2" fill-opacity="1"><g transform="translate(165.396461, 268.724382)"><g><path d="M 12.734375 0 L 10.625 0 L 3.921875 -12.90625 L 3.921875 0 L 1.8125 0 L 1.8125 -16.734375 L 3.921875 -16.734375 L 10.640625 -3.78125 L 10.640625 -16.734375 L 12.734375 -16.734375 Z M 12.734375 0 "/></g></g></g><g fill="#14bbe2" fill-opacity="1"><g transform="translate(185.358286, 268.724382)"><g><path d="M 4 0 L 1.890625 0 L 1.890625 -16.734375 L 4 -16.734375 Z M 4 0 "/></g></g></g><g fill="#14bbe2" fill-opacity="1"><g transform="translate(196.633777, 268.724382)"><g><path d="M 12.734375 0 L 10.625 0 L 3.921875 -12.90625 L 3.921875 0 L 1.8125 0 L 1.8125 -16.734375 L 3.921875 -16.734375 L 10.640625 -3.78125 L 10.640625 -16.734375 L 12.734375 -16.734375 Z M 12.734375 0 "/></g></g></g><g fill="#14bbe2" fill-opacity="1"><g transform="translate(216.595602, 268.724382)"><g><path d="M 12.28125 -2.078125 L 11.90625 -1.625 C 10.851562 -0.382812 9.304688 0.234375 7.265625 0.234375 C 5.453125 0.234375 4.03125 -0.363281 3 -1.5625 C 1.96875 -2.769531 1.441406 -4.46875 1.421875 -6.65625 L 1.421875 -9.953125 C 1.421875 -12.296875 1.890625 -14.050781 2.828125 -15.21875 C 3.773438 -16.382812 5.179688 -16.96875 7.046875 -16.96875 C 8.640625 -16.96875 9.882812 -16.519531 10.78125 -15.625 C 11.6875 -14.738281 12.1875 -13.472656 12.28125 -11.828125 L 10.171875 -11.828125 C 10.085938 -12.867188 9.796875 -13.679688 9.296875 -14.265625 C 8.804688 -14.859375 8.0625 -15.15625 7.0625 -15.15625 C 5.851562 -15.15625 4.96875 -14.757812 4.40625 -13.96875 C 3.851562 -13.1875 3.566406 -11.929688 3.546875 -10.203125 L 3.546875 -6.796875 C 3.546875 -5.109375 3.863281 -3.8125 4.5 -2.90625 C 5.144531 -2.007812 6.070312 -1.5625 7.28125 -1.5625 C 8.414062 -1.5625 9.273438 -1.835938 9.859375 -2.390625 L 10.171875 -2.671875 L 10.171875 -6.546875 L 7.109375 -6.546875 L 7.109375 -8.328125 L 12.28125 -8.328125 Z M 12.28125 -2.078125 "/></g></g></g><g fill="#14bbe2" fill-opacity="1"><g transform="translate(235.891015, 268.724382)"><g/></g></g><g fill="#14bbe2" fill-opacity="1"><g transform="translate(246.672436, 268.724382)"><g><path d="M 9.125 -4.234375 C 9.125 -5.066406 8.894531 -5.703125 8.4375 -6.140625 C 7.988281 -6.585938 7.171875 -7.019531 5.984375 -7.4375 C 4.804688 -7.863281 3.90625 -8.304688 3.28125 -8.765625 C 2.65625 -9.234375 2.1875 -9.765625 1.875 -10.359375 C 1.570312 -10.953125 1.421875 -11.632812 1.421875 -12.40625 C 1.421875 -13.726562 1.859375 -14.816406 2.734375 -15.671875 C 3.617188 -16.535156 4.78125 -16.96875 6.21875 -16.96875 C 7.195312 -16.96875 8.066406 -16.742188 8.828125 -16.296875 C 9.597656 -15.859375 10.191406 -15.25 10.609375 -14.46875 C 11.023438 -13.6875 11.234375 -12.832031 11.234375 -11.90625 L 9.125 -11.90625 C 9.125 -12.9375 8.875 -13.734375 8.375 -14.296875 C 7.875 -14.867188 7.15625 -15.15625 6.21875 -15.15625 C 5.363281 -15.15625 4.703125 -14.914062 4.234375 -14.4375 C 3.773438 -13.96875 3.546875 -13.300781 3.546875 -12.4375 C 3.546875 -11.726562 3.796875 -11.132812 4.296875 -10.65625 C 4.804688 -10.1875 5.585938 -9.765625 6.640625 -9.390625 C 8.296875 -8.847656 9.476562 -8.175781 10.1875 -7.375 C 10.894531 -6.582031 11.25 -5.539062 11.25 -4.25 C 11.25 -2.894531 10.804688 -1.804688 9.921875 -0.984375 C 9.035156 -0.171875 7.835938 0.234375 6.328125 0.234375 C 5.347656 0.234375 4.445312 0.0195312 3.625 -0.40625 C 2.800781 -0.832031 2.15625 -1.429688 1.6875 -2.203125 C 1.21875 -2.972656 0.984375 -3.859375 0.984375 -4.859375 L 3.09375 -4.859375 C 3.09375 -3.816406 3.378906 -3.007812 3.953125 -2.4375 C 4.535156 -1.863281 5.328125 -1.578125 6.328125 -1.578125 C 7.253906 -1.578125 7.953125 -1.8125 8.421875 -2.28125 C 8.890625 -2.757812 9.125 -3.410156 9.125 -4.234375 Z M 9.125 -4.234375 "/></g></g></g><g fill="#14bbe2" fill-opacity="1"><g transform="translate(264.255858, 268.724382)"><g><path d="M 9.828125 -7.734375 L 3.90625 -7.734375 L 3.90625 -1.8125 L 10.8125 -1.8125 L 10.8125 0 L 1.8125 0 L 1.8125 -16.734375 L 10.6875 -16.734375 L 10.6875 -14.921875 L 3.90625 -14.921875 L 3.90625 -9.546875 L 9.828125 -9.546875 Z M 9.828125 -7.734375 "/></g></g></g><g fill="#14bbe2" fill-opacity="1"><g transform="translate(281.333727, 268.724382)"><g><path d="M 6.859375 -6.765625 L 3.921875 -6.765625 L 3.921875 0 L 1.8125 0 L 1.8125 -16.734375 L 6.5 -16.734375 C 8.132812 -16.734375 9.375 -16.304688 10.21875 -15.453125 C 11.0625 -14.597656 11.484375 -13.347656 11.484375 -11.703125 C 11.484375 -10.671875 11.253906 -9.769531 10.796875 -9 C 10.347656 -8.226562 9.703125 -7.644531 8.859375 -7.25 L 12.109375 -0.140625 L 12.109375 0 L 9.84375 0 Z M 3.921875 -8.578125 L 6.46875 -8.578125 C 7.351562 -8.578125 8.054688 -8.859375 8.578125 -9.421875 C 9.109375 -9.992188 9.375 -10.753906 9.375 -11.703125 C 9.375 -13.847656 8.398438 -14.921875 6.453125 -14.921875 L 3.921875 -14.921875 Z M 3.921875 -8.578125 "/></g></g></g><g fill="#14bbe2" fill-opacity="1"><g transform="translate(299.215898, 268.724382)"><g><path d="M 6.59375 -3.234375 L 10.421875 -16.734375 L 12.734375 -16.734375 L 7.515625 0 L 5.6875 0 L 0.484375 -16.734375 L 2.78125 -16.734375 Z M 6.59375 -3.234375 "/></g></g></g><g fill="#14bbe2" fill-opacity="1"><g transform="translate(317.78746, 268.724382)"><g><path d="M 4 0 L 1.890625 0 L 1.890625 -16.734375 L 4 -16.734375 Z M 4 0 "/></g></g></g><g fill="#14bbe2" fill-opacity="1"><g transform="translate(329.062957, 268.724382)"><g><path d="M 12.296875 -5.3125 C 12.210938 -3.519531 11.710938 -2.144531 10.796875 -1.1875 C 9.878906 -0.238281 8.582031 0.234375 6.90625 0.234375 C 5.226562 0.234375 3.894531 -0.398438 2.90625 -1.671875 C 1.914062 -2.953125 1.421875 -4.6875 1.421875 -6.875 L 1.421875 -9.90625 C 1.421875 -12.082031 1.925781 -13.800781 2.9375 -15.0625 C 3.957031 -16.332031 5.347656 -16.96875 7.109375 -16.96875 C 8.722656 -16.96875 9.972656 -16.484375 10.859375 -15.515625 C 11.742188 -14.546875 12.222656 -13.160156 12.296875 -11.359375 L 10.171875 -11.359375 C 10.078125 -12.722656 9.789062 -13.695312 9.3125 -14.28125 C 8.832031 -14.863281 8.097656 -15.15625 7.109375 -15.15625 C 5.960938 -15.15625 5.082031 -14.707031 4.46875 -13.8125 C 3.851562 -12.914062 3.546875 -11.609375 3.546875 -9.890625 L 3.546875 -6.8125 C 3.546875 -5.125 3.832031 -3.828125 4.40625 -2.921875 C 4.976562 -2.015625 5.8125 -1.5625 6.90625 -1.5625 C 8 -1.5625 8.785156 -1.832031 9.265625 -2.375 C 9.753906 -2.925781 10.054688 -3.90625 10.171875 -5.3125 Z M 12.296875 -5.3125 "/></g></g></g><g fill="#14bbe2" fill-opacity="1"><g transform="translate(347.795378, 268.724382)"><g><path d="M 9.828125 -7.734375 L 3.90625 -7.734375 L 3.90625 -1.8125 L 10.8125 -1.8125 L 10.8125 0 L 1.8125 0 L 1.8125 -16.734375 L 10.6875 -16.734375 L 10.6875 -14.921875 L 3.90625 -14.921875 L 3.90625 -9.546875 L 9.828125 -9.546875 Z M 9.828125 -7.734375 "/></g></g></g></svg>