
<?xml version="1.0" standalone="no"?>
<!DOCTYPE svg PUBLIC "-//W3C//DTD SVG 20010904//EN"
 "http://www.w3.org/TR/2001/REC-SVG-20010904/DTD/svg10.dtd">
<svg version="1.0" xmlns="http://www.w3.org/2000/svg"
 width="512.000000pt" height="512.000000pt" viewBox="0 0 512.000000 512.000000"
 preserveAspectRatio="xMidYMid meet">

<g transform="translate(0.000000,512.000000) scale(0.100000,-0.100000)"
fill="#current" stroke="none">
<path d="M1605 5105 c-306 -48 -554 -185 -636 -351 -45 -90 -51 -194 -19 -294
31 -97 110 -211 193 -281 140 -118 219 -169 653 -424 561 -330 895 -792 894
-1239 -1 -275 -135 -537 -432 -842 -67 -68 -123 -123 -125 -121 -2 2 -10 60
-18 128 -9 68 -22 147 -30 176 -12 42 -15 140 -15 550 0 400 -3 509 -15 552
-48 182 -207 339 -385 380 -25 6 -162 11 -306 11 -211 0 -271 -3 -315 -16
-150 -45 -267 -144 -336 -285 -49 -103 -53 -146 -53 -674 0 -302 -4 -504 -10
-525 -6 -19 -44 -323 -86 -675 -88 -745 -89 -768 -30 -891 63 -134 191 -235
341 -269 58 -14 136 -16 524 -13 438 4 458 5 513 25 180 68 301 206 331 376
10 60 6 111 -38 494 l-48 428 142 140 c372 365 527 626 564 952 39 352 -123
743 -447 1081 -179 185 -335 300 -669 491 -302 172 -508 320 -568 408 -39 56
-78 148 -79 182 -1 78 64 170 163 229 75 45 223 96 341 117 117 21 325 16 421
-10 94 -26 190 -81 245 -142 l49 -54 -19 -32 c-11 -18 -20 -43 -20 -57 -1 -17
-11 -31 -33 -45 -39 -24 -77 -96 -77 -146 0 -23 15 -67 43 -120 55 -109 89
-132 190 -126 63 4 71 2 94 -20 37 -38 71 -28 295 82 194 95 238 125 238 166
0 29 -199 452 -222 472 -33 28 -72 20 -205 -43 -69 -33 -127 -59 -128 -58 -1
2 -11 19 -24 40 -65 109 -233 217 -401 258 -112 27 -322 34 -445 15z m81
-1958 c77 -36 145 -104 181 -182 l28 -60 3 -362 c2 -200 0 -363 -3 -363 -4 0
-24 15 -45 33 -61 52 -143 97 -237 131 -84 29 -95 31 -243 31 -144 -1 -161 -3
-235 -28 -94 -33 -171 -74 -240 -129 l-50 -40 -3 348 c-3 387 0 411 61 500 19
27 58 66 88 86 88 61 131 68 399 65 235 -2 235 -2 296 -30z m-145 -971 c237
-82 387 -325 351 -569 -46 -313 -352 -519 -656 -441 -277 71 -452 364 -381
637 79 303 393 474 686 373z m-748 -1598 c34 -18 46 -40 47 -83 0 -78 53 -129
147 -142 61 -8 93 -39 93 -88 0 -54 -36 -85 -98 -85 -150 0 -285 108 -312 249
-22 117 41 193 123 149z"/>
<path d="M1213 1990 c-78 -39 -145 -112 -173 -188 -30 -79 -26 -205 10 -277
119 -245 459 -269 609 -43 121 180 53 421 -144 514 l-50 24 -5 -146 c-5 -145
-5 -146 -33 -170 -51 -43 -128 -22 -142 39 -3 12 -6 80 -8 150 l-2 128 -62
-31z"/>
<path d="M2974 4150 c-28 -11 -54 -48 -54 -78 0 -22 291 -657 310 -676 6 -6
15 -4 24 3 9 7 41 24 73 37 34 14 57 29 55 36 -2 7 -72 158 -155 336 -124 267
-156 326 -178 338 -31 16 -45 17 -75 4z"/>
<path d="M3401 3276 c-48 -17 -108 -71 -133 -119 -16 -31 -23 -65 -25 -127
l-4 -85 105 -224 c58 -123 113 -229 123 -237 35 -26 77 -15 256 68 182 83 208
103 207 155 -1 34 -198 437 -234 480 -50 57 -144 103 -210 102 -28 0 -66 -6
-85 -13z"/>
<path d="M3798 2393 c-43 -20 -78 -42 -78 -49 0 -7 68 -301 150 -653 146 -621
150 -642 135 -671 -27 -52 -87 -65 -130 -27 -24 20 -36 62 -124 435 -54 227
-101 415 -104 419 -11 10 -89 -47 -155 -115 -107 -111 -182 -296 -182 -452 0
-91 28 -202 75 -297 96 -194 290 -333 502 -359 32 -3 68 -10 80 -15 31 -12 53
-60 53 -117 0 -165 130 -358 291 -435 41 -19 98 -40 127 -46 321 -66 630 179
634 502 2 165 -50 288 -173 409 -106 104 -107 135 -3 204 213 141 237 450 49
623 -72 67 -143 94 -250 98 -49 2 -96 0 -104 -5 -10 -7 2 -29 56 -99 133 -170
163 -214 163 -243 0 -60 -72 -106 -123 -78 -14 7 -196 236 -406 508 -209 272
-386 496 -393 497 -7 1 -48 -15 -90 -34z"/>
<path d="M105 701 c-11 -5 -29 -19 -40 -31 -19 -21 -20 -38 -23 -289 -2 -146
0 -281 3 -300 4 -18 17 -44 30 -57 24 -24 27 -24 220 -24 166 0 195 2 195 15
0 8 -21 43 -46 77 -62 83 -99 167 -120 268 -16 83 -16 147 2 298 l7 52 -104
-1 c-57 0 -113 -4 -124 -8z"/>
<path d="M2416 623 c25 -245 -7 -379 -128 -539 -64 -85 -66 -84 148 -84 187 0
215 4 241 39 9 12 12 95 13 313 l0 297 -24 28 c-24 27 -27 28 -141 31 l-118 4
9 -89z"/>
</g>
</svg>
