<svg version="1.0" xmlns="http://www.w3.org/2000/svg" width="682.667" height="682.667" viewBox="0 0 512 512"><g fill="#current"><path d="M160.5 1.5C129.9 6.3 105.1 20 96.9 36.6 92.4 45.6 91.8 56 95 66c3.1 9.7 11 21.1 19.3 28.1 14 11.8 21.9 16.9 65.3 42.4 56.1 33 89.5 79.2 89.4 123.9-.1 27.5-13.5 53.7-43.2 84.2-6.7 6.8-12.3 12.3-12.5 12.1-.2-.2-1-6-1.8-12.8-.9-6.8-2.2-14.7-3-17.6-1.2-4.2-1.5-14-1.5-55 0-40-.3-50.9-1.5-55.2-4.8-18.2-20.7-33.9-38.5-38-2.5-.6-16.2-1.1-30.6-1.1-21.1 0-27.1.3-31.5 1.6-15 4.5-26.7 14.4-33.6 28.5-4.9 10.3-5.3 14.6-5.3 67.4 0 30.2-.4 50.4-1 52.5-.6 1.9-4.4 32.3-8.6 67.5-8.8 74.5-8.9 76.8-3 89.1 6.3 13.4 19.1 23.5 34.1 26.9 5.8 1.4 13.6 1.6 52.4 1.3 43.8-.4 45.8-.5 51.3-2.5 18-6.8 30.1-20.6 33.1-37.6 1-6 .6-11.1-3.8-49.4l-4.8-42.8 14.2-14c37.2-36.5 52.7-62.6 56.4-95.2 3.9-35.2-12.3-74.3-44.7-108.1-17.9-18.5-33.5-30-66.9-49.1-30.2-17.2-50.8-32-56.8-40.8-3.9-5.6-7.8-14.8-7.9-18.2-.1-7.8 6.4-17 16.3-22.9 7.5-4.5 22.3-9.6 34.1-11.7 11.7-2.1 32.5-1.6 42.1 1 9.4 2.6 19 8.1 24.5 14.2l4.9 5.4-1.9 3.2c-1.1 1.8-2 4.3-2 5.7-.1 1.7-1.1 3.1-3.3 4.5-3.9 2.4-7.7 9.6-7.7 14.6 0 2.3 1.5 6.7 4.3 12 5.5 10.9 8.9 13.2 19 12.6 6.3-.4 7.1-.2 9.4 2 3.7 3.8 7.1 2.8 29.5-8.2C298.6 77 303 74 303 69.9c0-2.9-19.9-45.2-22.2-47.2-3.3-2.8-7.2-2-20.5 4.3-6.9 3.3-12.7 5.9-12.8 5.8-.1-.2-1.1-1.9-2.4-4C238.6 17.9 221.8 7.1 205 3 193.8.3 172.8-.4 160.5 1.5zm8.1 195.8c7.7 3.6 14.5 10.4 18.1 18.2l2.8 6 .3 36.2c.2 20 0 36.3-.3 36.3-.4 0-2.4-1.5-4.5-3.3-6.1-5.2-14.3-9.7-23.7-13.1-8.4-2.9-9.5-3.1-24.3-3.1-14.4.1-16.1.3-23.5 2.8-9.4 3.3-17.1 7.4-24 12.9l-5 4-.3-34.8c-.3-38.7 0-41.1 6.1-50 1.9-2.7 5.8-6.6 8.8-8.6 8.8-6.1 13.1-6.8 39.9-6.5 23.5.2 23.5.2 29.6 3zm-14.5 97.1c23.7 8.2 38.7 32.5 35.1 56.9-4.6 31.3-35.2 51.9-65.6 44.1-27.7-7.1-45.2-36.4-38.1-63.7 7.9-30.3 39.3-47.4 68.6-37.3zM79.3 454.2c3.4 1.8 4.6 4 4.7 8.3 0 7.8 5.3 12.9 14.7 14.2 6.1.8 9.3 3.9 9.3 8.8 0 5.4-3.6 8.5-9.8 8.5-15 0-28.5-10.8-31.2-24.9-2.2-11.7 4.1-19.3 12.3-14.9z"/><path d="M121.3 313c-7.8 3.9-14.5 11.2-17.3 18.8-3 7.9-2.6 20.5 1 27.7 11.9 24.5 45.9 26.9 60.9 4.3 12.1-18 5.3-42.1-14.4-51.4l-5-2.4-.5 14.6c-.5 14.5-.5 14.6-3.3 17-5.1 4.3-12.8 2.2-14.2-3.9-.3-1.2-.6-8-.8-15l-.2-12.8-6.2 3.1zM297.4 97c-2.8 1.1-5.4 4.8-5.4 7.8 0 2.2 29.1 65.7 31 67.6.6.6 1.5.4 2.4-.3.9-.7 4.1-2.4 7.3-3.7 3.4-1.4 5.7-2.9 5.5-3.6-.2-.7-7.2-15.8-15.5-33.6-12.4-26.7-15.6-32.6-17.8-33.8-3.1-1.6-4.5-1.7-7.5-.4zM340.1 184.4c-4.8 1.7-10.8 7.1-13.3 11.9-1.6 3.1-2.3 6.5-2.5 12.7l-.4 8.5 10.5 22.4c5.8 12.3 11.3 22.9 12.3 23.7 3.5 2.6 7.7 1.5 25.6-6.8 18.2-8.3 20.8-10.3 20.7-15.5-.1-3.4-19.8-43.7-23.4-48-5-5.7-14.4-10.3-21-10.2-2.8 0-6.6.6-8.5 1.3zM379.8 272.7c-4.3 2-7.8 4.2-7.8 4.9 0 .7 6.8 30.1 15 65.3 14.6 62.1 15 64.2 13.5 67.1-2.7 5.2-8.7 6.5-13 2.7-2.4-2-3.6-6.2-12.4-43.5-5.4-22.7-10.1-41.5-10.4-41.9-1.1-1-8.9 4.7-15.5 11.5-10.7 11.1-18.2 29.6-18.2 45.2 0 9.1 2.8 20.2 7.5 29.7 9.6 19.4 29 33.3 50.2 35.9 3.2.3 6.8 1 8 1.5 3.1 1.2 5.3 6 5.3 11.7 0 16.5 13 35.8 29.1 43.5 4.1 1.9 9.8 4 12.7 4.6 32.1 6.6 63-17.9 63.4-50.2.2-16.5-5-28.8-17.3-40.9-10.6-10.4-10.7-13.5-.3-20.4 21.3-14.1 23.7-45 4.9-62.3-7.2-6.7-14.3-9.4-25-9.8-4.9-.2-9.6 0-10.4.5-1 .7.2 2.9 5.6 9.9 13.3 17 16.3 21.4 16.3 24.3 0 6-7.2 10.6-12.3 7.8-1.4-.7-19.6-23.6-40.6-50.8-20.9-27.2-38.6-49.6-39.3-49.7-.7-.1-4.8 1.5-9 3.4zM10.5 441.9c-1.1.5-2.9 1.9-4 3.1-1.9 2.1-2 3.8-2.3 28.9-.2 14.6 0 28.1.3 30 .4 1.8 1.7 4.4 3 5.7 2.4 2.4 2.7 2.4 22 2.4 16.6 0 19.5-.2 19.5-1.5 0-.8-2.1-4.3-4.6-7.7-6.2-8.3-9.9-16.7-12-26.8-1.6-8.3-1.6-14.7.2-29.8l.7-5.2-10.4.1c-5.7 0-11.3.4-12.4.8zM241.6 449.7c2.5 24.5-.7 37.9-12.8 53.9-6.4 8.5-6.6 8.4 14.8 8.4 18.7 0 21.5-.4 24.1-3.9.9-1.2 1.2-9.5 1.3-31.3v-29.7l-2.4-2.8c-2.4-2.7-2.7-2.8-14.1-3.1l-11.8-.4.9 8.9z"/></g></svg>