<svg xmlns="http://www.w3.org/2000/svg" width="1080" viewBox="0 0 810 1440" height="1920" version="1.0"><defs><clipPath id="a"><path d="M.96 550H507v795.516H.96Zm0 0"/></clipPath><clipPath id="b"><path d="M261 94.516h547.977V1283H261Zm0 0"/></clipPath></defs><g clip-path="url(#a)"><path fill="#FFF" d="m497.148 940.883.079-.094c3.324-1.437 6.566-2.976 9.714-4.504l-12.359-31.95c-3.574 1.786-7.23 3.58-10.894 5.118-1.141.485-2.278.942-3.403 1.426-6.785-35.59-15.37-65.422-26.336-87.746-66.027-125.84-240.168-125.84-306.195 0-8.117 16.531-14.934 37.187-20.68 61.238-3.39-2.91-6.75-5.851-9.992-8.84-18.059-16.691-33.816-34.34-46.691-53.328-21.715-32.039-35.266-69.95-35.348-106.93-.094-31.867 9.875-63.043 33.473-89.035 4.945-5.527 10.738-10.644 17.3-15.242 6.563-4.61 13.805-8.691 21.809-12.105l1.273-.598c16.106-8.516 34.258-13.113 52.66-13.887 22.231-.93 44.637 3.59 64.153 13.461 19.082 9.543 35.36 24.2 45.66 43.707 4.692 8.864 7.336 13.207 9.379 24.117h34.59c-2.473-16.875-6.645-26.59-13.715-40.05-13.883-26.07-35.45-45.66-60.578-58.27-24.715-12.437-52.992-18.23-80.766-17.035-23.265.93-46.265 6.723-66.715 17.46-10.046 4.345-19.164 9.45-27.43 15.255a137.037 137.037 0 0 0-22.921 20.36C13.477 636.206.879 675.405.96 715.272c.078 44.051 15.851 88.7 41.23 126.094 14.579 21.39 31.957 41.07 51.797 59.305 8.07 7.402 16.543 14.586 25.36 21.574-17.645 101.508-21.782 245.879-23.313 398.457 63.05 18.828 132.149 25.383 204.82 24.875 72.672.508 141.77-6.047 204.81-24.875-1.403-141.246-5.06-275.453-19.599-375.144a744.423 744.423 0 0 0 11.082-4.676" fill-rule="evenodd"/></g><g clip-path="url(#b)"><path fill="#FFF" d="M714.738 1198.438c0 .94-.687 1.703-1.62 1.703h-14.911c-.93 0-1.7-.762-1.7-1.704v-3.242c0-.93.77-1.699 1.7-1.699h14.91c.934 0 1.621.77 1.621 1.7Zm0 10.738c0 .93-.687 1.699-1.62 1.699h-14.911c-.93 0-1.7-.77-1.7-1.7v-3.323c0-.852.77-1.622 1.7-1.622h14.91c.934 0 1.621.77 1.621 1.622Zm93.89 60.062c-2.894-13.289-5.804-26.234-8.526-38.761-2.633-12.188-5.196-24.028-7.747-35.536-1.37-6.218-7.496-11.242-13.554-11.242h-6.817c-1.367-3.851-5.058-6.644-9.367-6.644H731.27c-4.325 0-7.957 2.793-9.301 6.644h-32.024c-1.508-17.137-19.992-28.3-43.672-33.484-.503-16.324-12.84-29.672-28.773-31.602L346.262 419.61l2.816-1.425c-22.922-45.317-47.887-106.243-48.992-160.602-.734-35.797 9.531-69.055 39.3-92.656.372.703.727 1.39 1.083 2.094 22.324-2.899 42.347-9.118 59.98-19.083-1.332-3.562-2.77-7.093-4.195-10.609 2.691-.207 5.367-.242 8.023-.047 71.235 6.473 127.286 43.969 168.266 99.008 44.129 59.297 71.144 138.957 81.457 223.3 10.297 84.86 3.574 174.063-19.773 251.684-21.38 71.051-56.66 132.137-105.309 170.82l12.863 33.063c58.88-42.855 100.711-112.715 125.16-194.09 24.715-82.125 31.864-176.191 20.957-265.476-10.898-89.883-40.117-175.34-87.914-239.578-46.695-62.707-110.757-105.227-192.808-112.723l-.254-.094c-8.254-.644-16.426-.023-24.531 1.621-1.461-3.425-2.93-6.84-4.344-10.3-24.543 5.957-41.922 17.039-58.281 32.37l1.277 2.485c-45.5 31.52-60.938 78.297-59.89 128.98 1.277 61.684 28.288 128.313 53.074 177.465l1.425-.71 270.754 697.542c-3.449 5.036-5.515 11.07-5.71 17.579-23.66 5.195-42.145 16.355-43.66 33.472h-12.368c1.781 33.488 1.527 71.48-1.793 99.266h276.297c6.816 0 11.078-6.23 9.457-13.727" fill-rule="evenodd"/></g><path fill="#FFF" d="M328.535 671.14h-53.242c-12.016 0-21.809 9.794-21.809 21.727v22.242h96.778v-22.242c0-11.933-9.793-21.726-21.727-21.726M242.152 735.125c38.68-14.14 81.536-13.887 120.043.941v-16.703H242.152v15.762M88.367 1114.348c-12.863 33.05-17.207 187.18 3.164 206.355.676-71.824 2.035-141.773 5.024-206.355h-8.188M512.055 1114.348h-8.09c2.976 64.582 4.265 134.53 5.023 206.355 20.278-19.176 15.93-173.305 3.067-206.355" fill-rule="evenodd"/></svg>